<?xml version="1.0" standalone="no"?><!DOCTYPE svg PUBLIC "-//W3C//DTD SVG 1.1//EN" "http://www.w3.org/Graphics/SVG/1.1/DTD/svg11.dtd"><svg t="1652761271836" class="icon" viewBox="0 0 1024 1024" version="1.1" xmlns="http://www.w3.org/2000/svg" p-id="1962" xmlns:xlink="http://www.w3.org/1999/xlink" width="200" height="200"><defs><style type="text/css"></style></defs><path d="M512 856A455.04 455.04 0 0 1 78.72 542.24a97.76 97.76 0 0 1 0-60.48 456 456 0 0 1 866.48 0 97.76 97.76 0 0 1 0 60.48A455.04 455.04 0 0 1 512 856z m0-624a391.12 391.12 0 0 0-372.4 269.68 33.28 33.28 0 0 0 0 20.64 392 392 0 0 0 744.88 0 33.28 33.28 0 0 0 0-20.64A391.12 391.12 0 0 0 512 232z" p-id="1963"></path><path d="M512 680a168 168 0 0 1 0-336 32 32 0 0 1 0 64 104 104 0 1 0 104 104 102.64 102.64 0 0 0-12.24-48.96 32 32 0 0 1 56.48-30.16A168 168 0 0 1 512 680z" p-id="1964"></path><path d="M512 512m-32 0a32 32 0 1 0 64 0 32 32 0 1 0-64 0Z" p-id="1965"></path></svg>